<?xml version="1.0" standalone="no"?>
<!DOCTYPE svg PUBLIC "-//W3C//DTD SVG 20010904//EN"
 "http://www.w3.org/TR/2001/REC-SVG-20010904/DTD/svg10.dtd">
<svg version="1.0" xmlns="http://www.w3.org/2000/svg"
 width="150.000000pt" height="150.000000pt" viewBox="0 0 150.000000 150.000000"
 preserveAspectRatio="xMidYMid meet">
<metadata>
Created by potrace 1.16, written by Peter Selinger 2001-2019
</metadata>
<g transform="translate(0.000000,150.000000) scale(0.100000,-0.100000)"
fill="#000000" stroke="none">
<path d="M74 1346 c-17 -8 -40 -26 -52 -41 -22 -28 -22 -29 -22 -555 0 -526 0
-527 22 -555 44 -56 33 -55 728 -55 695 0 684 -1 728 55 22 28 22 29 22 555 0
526 0 527 -22 555 -44 56 -33 55 -730 55 -516 -1 -649 -3 -674 -14z m1316
-596 l0 -490 -640 0 -640 0 0 490 0 490 640 0 640 0 0 -490z"/>
<path d="M302 1153 c-13 -2 -41 -22 -61 -42 -66 -66 -66 -156 -1 -221 103
-103 270 -28 270 122 0 33 -31 88 -65 114 -32 24 -98 37 -143 27z"/>
<path d="M770 835 l-195 -195 -62 62 -63 63 -130 -130 -130 -130 0 -82 0 -83
560 0 560 0 0 183 0 182 -163 163 c-89 89 -167 162 -172 162 -6 0 -98 -88
-205 -195z"/>
</g>
</svg>
